<?xml version="1.0" encoding="UTF-8" standalone="no"?>
<!-- Created with Inkscape (http://www.inkscape.org/) -->

<svg
   xmlns:dc="http://purl.org/dc/elements/1.1/"
   xmlns:cc="http://creativecommons.org/ns#"
   xmlns:rdf="http://www.w3.org/1999/02/22-rdf-syntax-ns#"
   xmlns:svg="http://www.w3.org/2000/svg"
   xmlns="http://www.w3.org/2000/svg"
   xmlns:sodipodi="http://sodipodi.sourceforge.net/DTD/sodipodi-0.dtd"
   xmlns:inkscape="http://www.inkscape.org/namespaces/inkscape"
   width="300"
   height="450"
   viewBox="0 0 300 450"
   id="svg4260"
   version="1.1"
   inkscape:version="0.91 r13725"
   sodipodi:docname="cactus.svg">
  <defs
     id="defs4262" />
  <sodipodi:namedview
     id="base"
     pagecolor="#ffffff"
     bordercolor="#666666"
     borderopacity="1.0"
     inkscape:pageopacity="0.0"
     inkscape:pageshadow="2"
     inkscape:zoom="1.0312611"
     inkscape:cx="149.61233"
     inkscape:cy="225.67262"
     inkscape:document-units="px"
     inkscape:current-layer="layer1"
     showgrid="false"
     units="px"
     inkscape:showpageshadow="false" />
  <metadata
     id="metadata4265">
    <rdf:RDF>
      <cc:Work
         rdf:about="">
        <dc:format>image/svg+xml</dc:format>
        <dc:type
           rdf:resource="http://purl.org/dc/dcmitype/StillImage" />
        <dc:title></dc:title>
      </cc:Work>
    </rdf:RDF>
  </metadata>
  <g
     inkscape:label="Layer 1"
     inkscape:groupmode="layer"
     id="layer1"
     transform="translate(0,-602.36216)">
    <path
       style="fill:#64dd85;fill-opacity:1;fill-rule:evenodd;stroke:#000000;stroke-width:5.99999952;stroke-linecap:round;stroke-linejoin:round;stroke-miterlimit:4;stroke-dasharray:none;stroke-opacity:1"
       d="M 100.25119,1049.3439 C 44.058093,1041.1527 -1.9478488,874.16561 19.946218,857.89104 50.185347,835.41331 113.59835,1034.651 108.85294,952.95997 101.58979,827.9269 -12.148767,659.55941 65.847202,607.40391 114.63173,574.78195 138.60065,987.34845 152.58475,940.87876 183.96053,836.61599 187.25941,631.48595 234.5017,668.3304 c 70.64088,55.09316 -71.5185,347.9269 -40.86771,306.9701 30.65078,-40.9568 90.665,-148.245 91.95235,-79.18314 1.23953,66.49624 -12.25227,152.26904 -64.34104,152.79654 -57.65261,0.5837 -120.99411,0.43 -120.99411,0.43 z"
       id="path4268"
       inkscape:connector-curvature="0"
       sodipodi:nodetypes="cssssssssc" />
    <path
       style="fill:#cc781a;fill-opacity:1;fill-rule:evenodd;stroke:#000000;stroke-width:5.99999952;stroke-linecap:round;stroke-linejoin:round;stroke-miterlimit:4;stroke-dasharray:none;stroke-opacity:1"
       d="m 85.564812,656.77742 c 16.125408,-12.33523 20.376508,-30.84637 20.376508,-30.84637 0,0 -5.3582,46.25771 -12.090597,39.34912 z"
       id="path4810"
       inkscape:connector-curvature="0"
       sodipodi:nodetypes="ccsc" />
    <path
       sodipodi:nodetypes="ccsc"
       inkscape:connector-curvature="0"
       id="path4812"
       d="m 58.00927,682.34457 c -24.406512,-6.36022 -35.456362,-24.37878 -35.456362,-24.37878 0,0 20.862086,47.26333 27.404397,37.00465 z"
       style="fill:#cc781a;fill-opacity:1;fill-rule:evenodd;stroke:#000000;stroke-width:5.99999952;stroke-linecap:round;stroke-linejoin:round;stroke-miterlimit:4;stroke-dasharray:none;stroke-opacity:1" />
    <path
       style="fill:#cc781a;fill-opacity:1;fill-rule:evenodd;stroke:#000000;stroke-width:5.99999952;stroke-linecap:round;stroke-linejoin:round;stroke-miterlimit:4;stroke-dasharray:none;stroke-opacity:1"
       d="m 81.208766,765.16372 c -20.187757,3.73852 -33.922026,-5.33949 -33.922026,-5.33949 0,0 29.949687,26.56193 31.730402,17.04834 z"
       id="path4814"
       inkscape:connector-curvature="0"
       sodipodi:nodetypes="ccsc" />
    <path
       sodipodi:nodetypes="ccsc"
       inkscape:connector-curvature="0"
       id="path4816"
       d="m 98.248945,792.07791 c 30.009435,-9.89501 41.710395,-30.68283 41.710395,-30.68283 0,0 -20.44179,53.5143 -29.97607,43.27942 z"
       style="fill:#cc781a;fill-opacity:1;fill-rule:evenodd;stroke:#000000;stroke-width:5.99999952;stroke-linecap:round;stroke-linejoin:round;stroke-miterlimit:4;stroke-dasharray:none;stroke-opacity:1" />
    <path
       sodipodi:nodetypes="ccsc"
       inkscape:connector-curvature="0"
       id="path4818"
       d="m 44.512611,927.73075 c -24.706927,4.81088 -41.5157069,-6.87108 -41.5157069,-6.87108 0,0 36.6541319,34.18097 38.8334739,21.9385 z"
       style="fill:#cc781a;fill-opacity:1;fill-rule:evenodd;stroke:#000000;stroke-width:5.99999952;stroke-linecap:round;stroke-linejoin:round;stroke-miterlimit:4;stroke-dasharray:none;stroke-opacity:1" />
    <path
       style="fill:#cc781a;fill-opacity:1;fill-rule:evenodd;stroke:#000000;stroke-width:6;stroke-linecap:round;stroke-linejoin:round;stroke-miterlimit:4;stroke-dasharray:none;stroke-opacity:1"
       d="m 105.25202,837.54758 c -28.096306,5.4811 -47.21097,-7.8283 -47.21097,-7.8283 0,0 41.682467,38.94278 44.16078,24.99479 z"
       id="path4820"
       inkscape:connector-curvature="0"
       sodipodi:nodetypes="ccsc" />
    <path
       style="fill:#cc781a;fill-opacity:1;fill-rule:evenodd;stroke:#000000;stroke-width:5.99999952;stroke-linecap:round;stroke-linejoin:round;stroke-miterlimit:4;stroke-dasharray:none;stroke-opacity:1"
       d="m 43.825563,893.21597 c 16.824146,-7.1544 23.384037,-22.18464 23.384037,-22.18464 0,0 -11.460251,38.69251 -16.80544,31.29237 z"
       id="path4822"
       inkscape:connector-curvature="0"
       sodipodi:nodetypes="ccsc" />
    <path
       style="fill:#cc781a;fill-opacity:1;fill-rule:evenodd;stroke:#000000;stroke-width:5.99999952;stroke-linecap:round;stroke-linejoin:round;stroke-miterlimit:4;stroke-dasharray:none;stroke-opacity:1"
       d="m 229.85035,740.6833 c 30.00943,-9.89501 41.71039,-30.68283 41.71039,-30.68283 0,0 -20.44179,53.51431 -29.97607,43.27943 z"
       id="path4824"
       inkscape:connector-curvature="0"
       sodipodi:nodetypes="ccsc" />
    <path
       sodipodi:nodetypes="ccsc"
       inkscape:connector-curvature="0"
       id="path4826"
       d="m 200.1562,754.8848 c -20.18776,3.73852 -33.92204,-5.3395 -33.92204,-5.3395 0,0 29.94969,26.56193 31.73041,17.04834 z"
       style="fill:#cc781a;fill-opacity:1;fill-rule:evenodd;stroke:#000000;stroke-width:5.99999952;stroke-linecap:round;stroke-linejoin:round;stroke-miterlimit:4;stroke-dasharray:none;stroke-opacity:1" />
    <path
       sodipodi:nodetypes="ccsc"
       inkscape:connector-curvature="0"
       id="path4828"
       d="m 222.40818,679.39104 c 8.07717,-19.51038 3.03132,-37.78591 3.03132,-37.78591 0,0 17.14014,42.76482 8.09769,40.53287 z"
       style="fill:#cc781a;fill-opacity:1;fill-rule:evenodd;stroke:#000000;stroke-width:5.99999952;stroke-linecap:round;stroke-linejoin:round;stroke-miterlimit:4;stroke-dasharray:none;stroke-opacity:1" />
    <path
       style="fill:#cc781a;fill-opacity:1;fill-rule:evenodd;stroke:#000000;stroke-width:5.99999952;stroke-linecap:round;stroke-linejoin:round;stroke-miterlimit:4;stroke-dasharray:none;stroke-opacity:1"
       d="m 212.59013,826.12437 c 30.75105,1.23833 48.07402,-8.04337 48.07402,-8.04337 0,0 -35.6808,26.13439 -41.23643,18.02455 z"
       id="path4830"
       inkscape:connector-curvature="0"
       sodipodi:nodetypes="ccsc" />
    <path
       sodipodi:nodetypes="ccsc"
       inkscape:connector-curvature="0"
       id="path4832"
       d="m 260.71157,909.72452 c -16.07403,-13.74636 -19.03602,-30.87505 -19.03602,-30.87505 0,0 1.81688,41.87929 9.53588,36.94631 z"
       style="fill:#cc781a;fill-opacity:1;fill-rule:evenodd;stroke:#000000;stroke-width:5.99999952;stroke-linecap:round;stroke-linejoin:round;stroke-miterlimit:4;stroke-dasharray:none;stroke-opacity:1" />
    <path
       style="fill:#cc781a;fill-opacity:1;fill-rule:evenodd;stroke:#000000;stroke-width:5.99999952;stroke-linecap:round;stroke-linejoin:round;stroke-miterlimit:4;stroke-dasharray:none;stroke-opacity:1"
       d="m 268.99277,932.52401 c 18.80716,-6.50119 28.00927,-22.76553 28.00927,-22.76553 0,0 -17.97489,42.36089 -22.47309,33.5767 z"
       id="path4834"
       inkscape:connector-curvature="0"
       sodipodi:nodetypes="ccsc" />
    <path
       style="fill:#cc781a;fill-opacity:1;fill-rule:evenodd;stroke:#000000;stroke-width:5.99999952;stroke-linecap:round;stroke-linejoin:round;stroke-miterlimit:4;stroke-dasharray:none;stroke-opacity:1"
       d="m 61.080197,976.3319 c -13.319571,21.35804 -33.324331,25.6954 -33.324331,25.6954 0,0 49.99447,-3.52396 42.521567,-13.46298 z"
       id="path4866"
       inkscape:connector-curvature="0"
       sodipodi:nodetypes="ccsc" />
    <path
       sodipodi:nodetypes="ccsc"
       inkscape:connector-curvature="0"
       id="path4868"
       d="m 256.30958,986.75709 c 17.04975,10.26065 35.4304,6.89027 35.4304,6.89027 0,0 -44.02983,13.37584 -40.17486,4.29095 z"
       style="fill:#cc781a;fill-opacity:1;fill-rule:evenodd;stroke:#000000;stroke-width:5.99999952;stroke-linecap:round;stroke-linejoin:round;stroke-miterlimit:4;stroke-dasharray:none;stroke-opacity:1" />
  </g>
</svg>
